<?xml version="1.0" standalone="no"?>
<!DOCTYPE svg PUBLIC "-//W3C//DTD SVG 20010904//EN"
 "http://www.w3.org/TR/2001/REC-SVG-20010904/DTD/svg10.dtd">
<svg version="1.0" xmlns="http://www.w3.org/2000/svg"
 width="828.000000pt" height="828.000000pt" viewBox="0 0 828.000000 828.000000"
 preserveAspectRatio="xMidYMid meet">
<metadata>
Created by potrace 1.14, written by Peter Selinger 2001-2017
</metadata>
<g transform="translate(0.000000,828.000000) scale(0.100000,-0.100000)"
fill="#000000" stroke="none">
<path d="M0 6210 l0 -2070 1483 0 1482 -1 -58 -30 c-32 -16 -63 -27 -69 -23
-7 4 -8 3 -4 -4 4 -6 -13 -22 -41 -38 -27 -15 -68 -41 -93 -58 -25 -17 -52
-31 -60 -31 -8 0 -15 -5 -15 -11 0 -6 -17 -27 -37 -46 -41 -38 -49 -75 -24
-101 13 -12 7 -22 -44 -75 l-59 -60 -35 24 c-25 17 -34 30 -31 44 2 12 0 18
-6 15 -5 -4 -7 -11 -4 -16 9 -14 4 -12 -96 35 -106 50 -210 76 -237 60 -39
-24 -47 -63 -47 -219 1 -118 5 -160 18 -195 17 -43 17 -45 0 -58 -74 -53 -128
-109 -174 -178 -30 -45 -56 -80 -59 -79 -3 2 -7 -21 -8 -50 l-3 -54 48 -24
c85 -43 240 -84 324 -87 15 0 -22 -115 -44 -139 -43 -45 -57 -88 -73 -214 -9
-67 -33 -189 -54 -272 -56 -216 -70 -303 -77 -455 -7 -171 -14 -163 167 -186
74 -10 136 -19 138 -20 6 -4 28 -115 62 -304 66 -369 81 -412 182 -514 34 -33
61 -65 59 -69 -1 -5 3 -6 8 -3 5 3 32 -5 60 -19 28 -15 77 -30 108 -35 32 -6
256 -10 498 -10 478 0 505 3 610 56 28 14 71 46 96 70 25 25 49 41 54 37 4 -5
5 -3 2 3 -8 14 56 77 68 67 4 -5 5 -3 2 3 -9 15 36 45 82 55 20 4 56 3 85 -3
44 -9 63 -23 156 -113 115 -110 173 -145 275 -165 42 -8 202 -10 530 -8 l470
3 86 42 c65 32 99 57 138 99 92 100 105 138 166 474 44 245 55 301 66 321 6
12 37 19 124 28 202 22 204 24 186 224 -14 161 -38 287 -90 471 -22 78 -45
184 -51 236 -11 99 -36 169 -73 208 -18 19 -52 121 -43 129 1 2 38 8 81 14 87
12 231 60 270 91 45 35 29 94 -61 219 -19 25 -30 49 -26 53 4 4 0 6 -8 4 -8
-2 -14 3 -12 10 1 6 -1 11 -5 10 -17 -5 -124 87 -119 102 38 123 48 264 25
369 -14 67 -36 85 -92 78 -90 -12 -230 -72 -318 -136 l-44 -32 -56 58 c-51 53
-55 60 -42 78 24 35 16 66 -28 106 -54 50 -193 143 -294 197 -44 23 -71 42
-60 41 11 -1 678 -1 1483 0 l1462 1 0 2070 0 2070 -4140 0 -4140 0 0 -2070z
m2133 498 c49 -26 52 -35 54 -172 2 -129 2 -131 27 -144 13 -7 36 -26 50 -43
26 -30 26 -33 26 -190 l0 -159 38 5 c20 2 172 7 337 10 411 7 576 16 581 29
33 99 49 127 96 176 52 52 170 120 210 120 27 0 26 133 -2 175 -27 40 -26 104
1 139 45 57 33 56 592 56 l514 0 34 -23 c60 -41 77 -114 39 -172 -28 -42 -29
-175 -2 -175 28 0 142 -58 181 -92 51 -45 87 -96 112 -160 l21 -55 136 -7 c76
-3 259 -8 407 -11 149 -3 300 -8 338 -10 l67 -4 0 152 c0 171 5 189 63 226
l37 24 0 112 c0 62 5 126 11 143 13 39 60 63 101 51 52 -14 57 -31 58 -175 l0
-130 35 -17 c62 -30 69 -52 75 -232 l5 -160 140 -5 c156 -6 192 -18 225 -73
51 -83 -9 -217 -97 -217 -13 0 -23 -3 -23 -7 -1 -42 -35 -301 -51 -383 -37
-196 -108 -407 -161 -483 -40 -56 -105 -19 -73 42 44 86 89 243 114 402 21
129 43 407 34 422 -8 13 -117 0 -122 -15 -2 -7 -22 -32 -45 -54 -81 -82 -186
-84 -268 -6 l-38 36 -417 -27 c-690 -45 -734 -49 -729 -64 18 -46 39 -204 39
-293 0 -155 -35 -312 -104 -465 -39 -89 -67 -125 -94 -125 -42 0 -47 29 -20
119 38 129 51 263 37 379 -14 114 -59 257 -105 333 l-32 54 -442 3 -441 2 -20
-27 c-56 -81 -105 -222 -123 -357 -18 -137 1 -287 57 -457 7 -22 -24 -51 -50
-47 -41 6 -130 203 -167 368 -28 127 -29 318 -1 440 11 47 19 86 19 86 -2 2
-797 56 -1039 70 l-107 7 -40 -36 c-36 -32 -92 -57 -131 -57 -59 0 -160 64
-175 109 -4 14 -20 20 -62 25 -31 4 -60 3 -64 -1 -12 -12 7 -271 31 -417 24
-153 51 -254 96 -359 38 -91 34 -117 -16 -117 -27 0 -33 7 -69 83 -75 158
-136 396 -160 627 -21 196 -20 190 -44 190 -29 0 -75 31 -98 66 -25 38 -25
109 1 151 33 55 69 67 225 73 l140 5 5 160 c6 179 11 195 74 235 l36 22 0 127
c0 119 1 129 23 148 12 12 31 23 42 26 11 3 21 5 23 6 2 0 13 -4 25 -11z
m-215 -114 c26 -18 29 -60 8 -90 -14 -18 -30 -19 -445 -19 -464 0 -449 -2
-466 52 -4 17 1 29 19 48 l25 25 418 0 c363 0 422 -2 441 -16z m1240 0 c15
-10 22 -25 22 -49 0 -66 4 -65 -456 -65 -227 0 -420 3 -429 6 -43 17 -48 89
-8 113 12 7 161 10 433 11 360 0 419 -2 438 -16z m2833 5 c46 -24 36 -102 -14
-114 -12 -3 -208 -4 -435 -3 -396 3 -414 4 -428 22 -21 30 -17 72 8 90 19 14
78 16 436 16 273 0 420 -4 433 -11z m1249 -7 c14 -11 23 -29 23 -47 0 -18 -9
-36 -23 -47 -21 -17 -52 -18 -441 -18 -406 0 -420 1 -439 20 -33 33 -22 88 20
103 8 3 200 6 426 6 383 1 413 0 434 -17z m-2794 -1227 l29 -23 3 -292 c3
-291 3 -293 -19 -316 l-22 -24 -296 0 c-372 0 -341 -18 -341 197 0 152 0 153
23 154 16 1 18 2 5 6 -16 4 -18 19 -18 142 0 144 4 157 50 174 8 3 137 6 286
6 268 0 270 0 300 -24z m1312 -3234 c28 -11 30 -15 17 -25 -13 -9 -12 -11 10
-12 14 -1 22 2 19 7 -9 14 6 10 23 -6 8 -9 12 -22 9 -31 -3 -8 -2 -13 3 -9 5
3 11 2 14 -2 2 -5 2 -2 1 5 -6 22 11 11 43 -29 44 -55 77 -158 69 -217 -17
-128 -49 -273 -57 -260 -6 9 -9 9 -9 1 0 -6 4 -14 9 -17 4 -3 6 -17 4 -31 l-5
-25 -1770 0 -1770 0 6 34 c5 23 3 35 -6 38 -7 3 -13 21 -13 45 0 23 -3 39 -7
37 -5 -3 -8 4 -8 16 0 12 5 18 10 15 6 -3 10 -2 10 3 0 6 -7 13 -16 16 -8 3
-14 14 -13 23 1 10 -3 36 -9 58 -13 45 -16 99 -4 91 4 -2 7 12 7 33 0 42 51
151 71 151 7 0 16 5 20 12 5 7 2 9 -7 4 -8 -4 2 6 21 22 19 17 38 28 42 26 5
-3 8 -1 8 4 0 8 46 25 95 36 11 2 724 3 1585 2 1295 -1 1571 -3 1598 -15z
m147 -683 c-2 -13 -23 -118 -45 -235 -22 -117 -49 -232 -60 -256 -28 -60 -92
-121 -159 -155 l-56 -27 -480 0 -480 0 -60 28 c-44 20 -84 52 -146 117 -114
116 -166 144 -274 144 -115 1 -173 -28 -284 -143 -48 -48 -104 -97 -126 -108
-81 -41 -129 -45 -590 -41 -430 3 -441 4 -496 26 -64 26 -136 92 -167 155 -13
26 -38 131 -62 258 -22 118 -43 224 -45 237 l-5 22 1770 0 1770 0 -5 -22z"/>
<path d="M3702 6405 l3 -46 435 0 435 1 3 45 3 45 -441 0 -441 0 3 -45z"/>
<path d="M3858 5363 c6 -2 18 -2 25 0 6 3 1 5 -13 5 -14 0 -19 -2 -12 -5z"/>
<path d="M4413 5350 c-1 -11 3 -20 8 -20 6 0 7 5 4 10 -3 6 -1 10 4 10 6 0 11
-4 11 -10 0 -5 5 -10 12 -10 6 0 3 9 -7 20 -10 11 -21 20 -24 20 -4 0 -7 -9
-8 -20z"/>
<path d="M3858 5343 c6 -2 18 -2 25 0 6 3 1 5 -13 5 -14 0 -19 -2 -12 -5z"/>
<path d="M3822 5283 c1 -48 1 -48 5 -8 3 22 10 43 16 47 8 5 6 8 -5 8 -15 0
-18 -8 -16 -47z"/>
<path d="M4097 5226 c4 -5 -6 -6 -23 -2 -16 4 -24 3 -18 -1 8 -5 -2 -16 -26
-32 -21 -13 -41 -35 -45 -48 -3 -13 -9 -22 -14 -19 -4 3 -7 -23 -6 -57 3 -119
69 -192 174 -192 109 0 174 69 177 187 1 37 -1 66 -6 63 -4 -2 -12 6 -18 19
-20 44 -80 80 -143 86 -34 3 -55 2 -52 -4z"/>
<path d="M4003 5199 c-2 -23 3 -25 10 -4 4 8 3 16 -1 19 -4 3 -9 -4 -9 -15z"/>
<path d="M4280 5189 c0 -5 5 -7 10 -4 6 3 10 8 10 11 0 2 -4 4 -10 4 -5 0 -10
-5 -10 -11z"/>
<path d="M4302 5174 c-7 -8 -8 -14 -3 -14 10 0 25 19 20 25 -2 1 -10 -3 -17
-11z"/>
<path d="M3920 5101 c0 -6 4 -13 10 -16 6 -3 7 1 4 9 -7 18 -14 21 -14 7z"/>
<path d="M4355 5070 c-3 -5 -1 -10 4 -10 6 0 11 5 11 10 0 6 -2 10 -4 10 -3 0
-8 -4 -11 -10z"/>
<path d="M4455 5070 c-3 -5 -1 -10 4 -10 6 0 11 5 11 10 0 6 -2 10 -4 10 -3 0
-8 -4 -11 -10z"/>
<path d="M3891 5066 c12 -10 59 -15 59 -6 0 5 -14 10 -32 10 -17 0 -29 -2 -27
-4z"/>
<path d="M2636 2131 c-3 -4 6 -6 19 -3 14 2 25 6 25 8 0 8 -39 4 -44 -5z"/>
<path d="M3438 2133 c402 -2 1062 -2 1465 0 402 1 73 2 -733 2 -806 0 -1135
-1 -732 -2z"/>
<path d="M2525 2120 c-3 -6 1 -7 9 -4 18 7 21 14 7 14 -6 0 -13 -4 -16 -10z"/>
<path d="M5708 2123 c7 -3 16 -2 19 1 4 3 -2 6 -13 5 -11 0 -14 -3 -6 -6z"/>
<path d="M2446 2081 c-15 -17 -15 -19 1 -32 10 -7 15 -9 10 -4 -4 4 0 16 9 26
8 9 11 20 6 23 -5 3 -17 -3 -26 -13z m24 5 c0 -2 -8 -10 -17 -17 -16 -13 -17
-12 -4 4 13 16 21 21 21 13z"/>
<path d="M5806 2075 c-3 -8 -1 -15 4 -15 13 0 22 18 11 24 -5 3 -11 -1 -15 -9z"/>
<path d="M5882 2014 c10 -10 20 -16 22 -13 3 3 -5 11 -17 18 -21 13 -21 12 -5
-5z"/>
<path d="M2371 1981 c-19 -26 -19 -29 -4 -26 10 1 17 8 15 15 -1 7 3 18 9 26
6 8 9 14 6 14 -3 0 -15 -13 -26 -29z"/>
<path d="M5932 1900 c0 -14 2 -19 5 -12 2 6 2 18 0 25 -3 6 -5 1 -5 -13z"/>
<path d="M2340 1765 c0 -8 4 -15 10 -15 5 0 7 7 4 15 -4 8 -8 15 -10 15 -2 0
-4 -7 -4 -15z"/>
<path d="M5934 1766 c-3 -8 -4 -23 -2 -33 3 -11 6 -6 9 15 6 34 2 42 -7 18z"/>
<path d="M2340 1710 c0 -5 5 -10 10 -10 6 0 10 5 10 10 0 6 -4 10 -10 10 -5 0
-10 -4 -10 -10z"/>
<path d="M2371 1684 c0 -11 3 -14 6 -6 3 7 2 16 -1 19 -3 4 -6 -2 -5 -13z"/>
<path d="M2361 1600 c0 -8 4 -22 9 -30 12 -18 12 -2 0 25 -6 13 -9 15 -9 5z"/>
<path d="M5849 773 c-13 -16 -12 -17 4 -4 16 13 21 21 13 21 -2 0 -10 -8 -17
-17z"/>
</g>
</svg>
